<mxfile host="65bd71144e" modified="2021-02-19T10:08:23.712Z" agent="5.0 (Windows NT 10.0; WOW64) AppleWebKit/537.36 (KHTML, like Gecko) Code/1.53.2 Chrome/87.0.4280.141 Electron/11.2.1 Safari/537.36" etag="B0kGYuml8gfZaMXrxZzC" version="14.2.4" type="embed">
    <diagram id="WdLojchZckuWFShdGZpE" name="Page-1">
        <mxGraphModel dx="1012" dy="597" grid="0" gridSize="10" guides="1" tooltips="1" connect="1" arrows="1" fold="1" page="1" pageScale="1" pageWidth="1200" pageHeight="1920" background="#631B50" math="0" shadow="1">
            <root>
                <mxCell id="0"/>
                <mxCell id="1" parent="0"/>
                <mxCell id="21" style="edgeStyle=orthogonalEdgeStyle;rounded=0;orthogonalLoop=1;jettySize=auto;html=1;exitX=0;exitY=0.25;exitDx=0;exitDy=0;entryX=1;entryY=0.25;entryDx=0;entryDy=0;fillColor=#0050ef;strokeWidth=2;strokeColor=#001DBC;" parent="1" source="DY0WOFuXYkYraGbMVRdT-4" target="DY0WOFuXYkYraGbMVRdT-5" edge="1">
                    <mxGeometry relative="1" as="geometry"/>
                </mxCell>
                <mxCell id="28" style="edgeStyle=orthogonalEdgeStyle;rounded=0;orthogonalLoop=1;jettySize=auto;html=1;exitX=0.25;exitY=1;exitDx=0;exitDy=0;entryX=0.25;entryY=0;entryDx=0;entryDy=0;strokeColor=#001DBC;strokeWidth=2;fillColor=#0050ef;" parent="1" source="DY0WOFuXYkYraGbMVRdT-4" target="DY0WOFuXYkYraGbMVRdT-18" edge="1">
                    <mxGeometry relative="1" as="geometry"/>
                </mxCell>
                <mxCell id="DY0WOFuXYkYraGbMVRdT-4" value="&lt;font face=&quot;Times New Roman&quot; size=&quot;1&quot;&gt;&lt;span style=&quot;font-size: 15px&quot;&gt;&lt;font color=&quot;#222222&quot; style=&quot;font-size: 15px&quot;&gt;&lt;b&gt;login.php = index&lt;/b&gt;&lt;br&gt;&lt;/font&gt;&lt;br&gt;(login form)&lt;br&gt;&lt;/span&gt;&lt;/font&gt;" style="whiteSpace=wrap;html=1;fillColor=#BC6C25;fontColor=#FEFAE0;rounded=1;glass=0;sketch=0;shadow=0;" parent="1" vertex="1">
                    <mxGeometry x="580" y="179" width="180" height="65" as="geometry"/>
                </mxCell>
                <mxCell id="25" style="edgeStyle=orthogonalEdgeStyle;rounded=0;orthogonalLoop=1;jettySize=auto;html=1;exitX=0.25;exitY=1;exitDx=0;exitDy=0;entryX=0.25;entryY=0;entryDx=0;entryDy=0;strokeWidth=2;fillColor=#0050ef;strokeColor=#001DBC;" parent="1" source="DY0WOFuXYkYraGbMVRdT-5" target="DY0WOFuXYkYraGbMVRdT-8" edge="1">
                    <mxGeometry relative="1" as="geometry"/>
                </mxCell>
                <mxCell id="40" style="edgeStyle=orthogonalEdgeStyle;rounded=0;orthogonalLoop=1;jettySize=auto;html=1;exitX=1;exitY=0.75;exitDx=0;exitDy=0;entryX=0;entryY=0.75;entryDx=0;entryDy=0;strokeWidth=2;fillColor=#0050ef;strokeColor=#001DBC;" parent="1" source="DY0WOFuXYkYraGbMVRdT-5" target="DY0WOFuXYkYraGbMVRdT-4" edge="1">
                    <mxGeometry relative="1" as="geometry"/>
                </mxCell>
                <mxCell id="DY0WOFuXYkYraGbMVRdT-5" value="&lt;font style=&quot;font-size: 15px&quot; face=&quot;Times New Roman&quot;&gt;&lt;b&gt;&lt;font color=&quot;#222222&quot;&gt;register.php&lt;br&gt;&lt;/font&gt;&lt;/b&gt;&lt;br&gt;(registration form)&lt;br&gt;&lt;/font&gt;" style="whiteSpace=wrap;html=1;fillColor=#BC6C25;fontColor=#FEFAE0;rounded=1;" parent="1" vertex="1">
                    <mxGeometry x="322" y="179" width="181" height="65" as="geometry"/>
                </mxCell>
                <mxCell id="38" style="edgeStyle=orthogonalEdgeStyle;rounded=0;orthogonalLoop=1;jettySize=auto;html=1;exitX=0.75;exitY=0;exitDx=0;exitDy=0;entryX=0.75;entryY=1;entryDx=0;entryDy=0;strokeWidth=2;fillColor=#e51400;strokeColor=#B20000;" parent="1" source="DY0WOFuXYkYraGbMVRdT-8" target="DY0WOFuXYkYraGbMVRdT-5" edge="1">
                    <mxGeometry relative="1" as="geometry"/>
                </mxCell>
                <mxCell id="39" style="edgeStyle=orthogonalEdgeStyle;rounded=0;orthogonalLoop=1;jettySize=auto;html=1;exitX=0;exitY=0.5;exitDx=0;exitDy=0;entryX=0.5;entryY=0;entryDx=0;entryDy=0;strokeColor=#3EA300;strokeWidth=2;" parent="1" source="DY0WOFuXYkYraGbMVRdT-8" target="DY0WOFuXYkYraGbMVRdT-4" edge="1">
                    <mxGeometry relative="1" as="geometry"/>
                </mxCell>
                <mxCell id="DY0WOFuXYkYraGbMVRdT-8" value="&lt;font face=&quot;Times New Roman&quot; size=&quot;1&quot;&gt;&lt;span style=&quot;font-size: 15px&quot;&gt;&lt;b&gt;&lt;font color=&quot;#222222&quot;&gt;register_post.php&lt;br&gt;&lt;/font&gt;&lt;/b&gt;&lt;br&gt;(check if user don't exist &lt;br&gt;and insert in bdd)&lt;br&gt;&lt;/span&gt;&lt;/font&gt;" style="whiteSpace=wrap;html=1;fillColor=#6a00ff;fontColor=#ffffff;rounded=1;strokeColor=#3700CC;" parent="1" vertex="1">
                    <mxGeometry x="322" y="297" width="180" height="84" as="geometry"/>
                </mxCell>
                <mxCell id="29" style="edgeStyle=orthogonalEdgeStyle;rounded=0;orthogonalLoop=1;jettySize=auto;html=1;entryX=0.5;entryY=0;entryDx=0;entryDy=0;strokeColor=#2D7600;strokeWidth=2;fillColor=#60a917;" parent="1" source="DY0WOFuXYkYraGbMVRdT-18" target="19" edge="1">
                    <mxGeometry relative="1" as="geometry"/>
                </mxCell>
                <mxCell id="34" style="edgeStyle=orthogonalEdgeStyle;rounded=0;orthogonalLoop=1;jettySize=auto;html=1;exitX=0.75;exitY=0;exitDx=0;exitDy=0;entryX=0.75;entryY=1;entryDx=0;entryDy=0;strokeColor=#B20000;strokeWidth=2;fillColor=#e51400;" parent="1" source="DY0WOFuXYkYraGbMVRdT-18" target="DY0WOFuXYkYraGbMVRdT-4" edge="1">
                    <mxGeometry relative="1" as="geometry"/>
                </mxCell>
                <mxCell id="36" style="edgeStyle=orthogonalEdgeStyle;rounded=0;orthogonalLoop=1;jettySize=auto;html=1;exitX=0.5;exitY=1;exitDx=0;exitDy=0;entryX=0.5;entryY=0;entryDx=0;entryDy=0;strokeWidth=2;strokeColor=#001DBC;fillColor=#0050ef;" parent="1" source="DY0WOFuXYkYraGbMVRdT-18" target="14" edge="1">
                    <mxGeometry relative="1" as="geometry"/>
                </mxCell>
                <mxCell id="S2VmPhM7Gjt4Ap9U7gyT-54" style="edgeStyle=orthogonalEdgeStyle;rounded=0;orthogonalLoop=1;jettySize=auto;html=1;entryX=0.5;entryY=0;entryDx=0;entryDy=0;strokeColor=#001DBC;strokeWidth=2;fillColor=#0050ef;" parent="1" source="DY0WOFuXYkYraGbMVRdT-18" target="S2VmPhM7Gjt4Ap9U7gyT-50" edge="1">
                    <mxGeometry relative="1" as="geometry">
                        <Array as="points">
                            <mxPoint x="670" y="427"/>
                            <mxPoint x="290" y="427"/>
                        </Array>
                    </mxGeometry>
                </mxCell>
                <mxCell id="DY0WOFuXYkYraGbMVRdT-18" value="&lt;div style=&quot;font-size: 16px&quot;&gt;&lt;b&gt;&lt;font face=&quot;Times New Roman&quot; color=&quot;#222222&quot; style=&quot;font-size: 16px&quot;&gt;login_post.php&lt;/font&gt;&lt;/b&gt;&lt;/div&gt;&lt;font style=&quot;font-size: 16px&quot; face=&quot;Times New Roman&quot;&gt;&lt;br&gt;&lt;font style=&quot;font-size: 16px&quot;&gt;(verify existing user in bdd)&lt;/font&gt;&lt;/font&gt;" style="whiteSpace=wrap;html=1;fontColor=#ffffff;rounded=1;fillColor=#6A00FF;strokeColor=#FFFFFF;" parent="1" vertex="1">
                    <mxGeometry x="580" y="296" width="180" height="84" as="geometry"/>
                </mxCell>
                <mxCell id="37" style="edgeStyle=orthogonalEdgeStyle;rounded=0;orthogonalLoop=1;jettySize=auto;html=1;exitX=1;exitY=0.5;exitDx=0;exitDy=0;entryX=1;entryY=0.5;entryDx=0;entryDy=0;strokeWidth=2;strokeColor=#001DBC;fillColor=#0050ef;" parent="1" source="14" target="DY0WOFuXYkYraGbMVRdT-4" edge="1">
                    <mxGeometry relative="1" as="geometry"/>
                </mxCell>
                <mxCell id="14" value="&lt;font style=&quot;font-size: 15px&quot; face=&quot;Times New Roman&quot;&gt;&lt;b style=&quot;line-height: 120%&quot;&gt;&lt;font style=&quot;font-size: 15px&quot;&gt;&lt;font color=&quot;#222222&quot; style=&quot;font-size: 15px&quot;&gt;logout.php&lt;/font&gt;&lt;br&gt;&lt;/font&gt;&lt;/b&gt;&lt;br&gt;&lt;font color=&quot;#ffffff&quot; style=&quot;line-height: 100% ; font-size: 15px&quot;&gt;(logout page)&lt;/font&gt;&lt;/font&gt;" style="rounded=1;whiteSpace=wrap;html=1;shadow=0;glass=0;sketch=0;fontColor=#FEFAE0;fillColor=#A20025;" parent="1" vertex="1">
                    <mxGeometry x="805" y="476" width="182" height="62" as="geometry"/>
                </mxCell>
                <mxCell id="44" style="edgeStyle=orthogonalEdgeStyle;rounded=0;orthogonalLoop=1;jettySize=auto;html=1;fillColor=#0050ef;strokeColor=#001DBC;strokeWidth=2;entryX=0.25;entryY=0;entryDx=0;entryDy=0;" parent="1" source="19" target="42" edge="1">
                    <mxGeometry relative="1" as="geometry">
                        <mxPoint x="671" y="581" as="targetPoint"/>
                        <Array as="points">
                            <mxPoint x="625" y="570"/>
                            <mxPoint x="625" y="570"/>
                        </Array>
                    </mxGeometry>
                </mxCell>
                <mxCell id="19" value="&lt;font style=&quot;font-size: 15px&quot; face=&quot;Times New Roman&quot;&gt;&lt;b style=&quot;line-height: 120%&quot;&gt;&lt;font style=&quot;font-size: 15px&quot;&gt;&lt;font color=&quot;#222222&quot; style=&quot;font-size: 15px&quot;&gt;portal.php&lt;/font&gt;&lt;br&gt;&lt;/font&gt;&lt;/b&gt;&lt;br&gt;&lt;font color=&quot;#ffffff&quot; style=&quot;line-height: 100% ; font-size: 15px&quot;&gt;(main page + search page and filter)&lt;/font&gt;&lt;/font&gt;" style="rounded=1;whiteSpace=wrap;html=1;shadow=0;glass=0;sketch=0;fontColor=#FEFAE0;fillColor=#BC6C25;" parent="1" vertex="1">
                    <mxGeometry x="580" y="472.5" width="181" height="69" as="geometry"/>
                </mxCell>
                <mxCell id="47" style="edgeStyle=orthogonalEdgeStyle;rounded=0;orthogonalLoop=1;jettySize=auto;html=1;exitX=0.75;exitY=0;exitDx=0;exitDy=0;entryX=0.75;entryY=1;entryDx=0;entryDy=0;strokeColor=#3EA300;strokeWidth=2;" parent="1" source="42" target="19" edge="1">
                    <mxGeometry relative="1" as="geometry"/>
                </mxCell>
                <mxCell id="42" value="&lt;font style=&quot;font-size: 15px&quot; face=&quot;Times New Roman&quot;&gt;&lt;b style=&quot;line-height: 120%&quot;&gt;&lt;font style=&quot;font-size: 15px&quot;&gt;&lt;font color=&quot;#222222&quot; style=&quot;font-size: 15px&quot;&gt;images_post.php&lt;/font&gt;&lt;br&gt;&lt;/font&gt;&lt;/b&gt;&lt;br&gt;&lt;font color=&quot;#ffffff&quot; style=&quot;line-height: 100% ; font-size: 15px&quot;&gt;(select the game)&lt;/font&gt;&lt;/font&gt;" style="rounded=1;whiteSpace=wrap;html=1;shadow=0;glass=0;sketch=0;fontColor=#FEFAE0;fillColor=#6A00FF;" parent="1" vertex="1">
                    <mxGeometry x="580" y="593" width="181" height="81" as="geometry"/>
                </mxCell>
                <mxCell id="S2VmPhM7Gjt4Ap9U7gyT-65" style="edgeStyle=orthogonalEdgeStyle;rounded=0;orthogonalLoop=1;jettySize=auto;html=1;exitX=0;exitY=0.5;exitDx=0;exitDy=0;strokeColor=#001DBC;strokeWidth=2;entryX=0.25;entryY=0;entryDx=0;entryDy=0;fillColor=#0050ef;" parent="1" source="S2VmPhM7Gjt4Ap9U7gyT-50" target="S2VmPhM7Gjt4Ap9U7gyT-61" edge="1">
                    <mxGeometry relative="1" as="geometry"/>
                </mxCell>
                <mxCell id="S2VmPhM7Gjt4Ap9U7gyT-71" style="edgeStyle=orthogonalEdgeStyle;rounded=0;orthogonalLoop=1;jettySize=auto;html=1;entryX=0.75;entryY=0;entryDx=0;entryDy=0;strokeColor=#001DBC;strokeWidth=2;exitX=1;exitY=0.5;exitDx=0;exitDy=0;fillColor=#0050ef;" parent="1" source="S2VmPhM7Gjt4Ap9U7gyT-50" target="S2VmPhM7Gjt4Ap9U7gyT-69" edge="1">
                    <mxGeometry relative="1" as="geometry">
                        <Array as="points">
                            <mxPoint x="461" y="508"/>
                        </Array>
                    </mxGeometry>
                </mxCell>
                <mxCell id="S2VmPhM7Gjt4Ap9U7gyT-50" value="&lt;font face=&quot;Times New Roman&quot; style=&quot;font-size: 15px&quot;&gt;&lt;b&gt;&lt;font color=&quot;#222222&quot;&gt;profile.php&lt;br&gt;&lt;/font&gt;&lt;/b&gt;&lt;br&gt;(user profile page)&lt;/font&gt;" style="whiteSpace=wrap;html=1;fillColor=#BC6C25;fontColor=#FEFAE0;rounded=1;" parent="1" vertex="1">
                    <mxGeometry x="199" y="476" width="181" height="63" as="geometry"/>
                </mxCell>
                <mxCell id="S2VmPhM7Gjt4Ap9U7gyT-74" style="edgeStyle=orthogonalEdgeStyle;rounded=0;orthogonalLoop=1;jettySize=auto;html=1;exitX=0.75;exitY=0;exitDx=0;exitDy=0;strokeColor=#6F0000;strokeWidth=2;fillColor=#a20025;" parent="1" source="S2VmPhM7Gjt4Ap9U7gyT-61" edge="1">
                    <mxGeometry relative="1" as="geometry">
                        <mxPoint x="217" y="540" as="targetPoint"/>
                        <Array as="points">
                            <mxPoint x="218" y="584"/>
                            <mxPoint x="217" y="584"/>
                        </Array>
                    </mxGeometry>
                </mxCell>
                <mxCell id="S2VmPhM7Gjt4Ap9U7gyT-75" style="edgeStyle=orthogonalEdgeStyle;rounded=0;orthogonalLoop=1;jettySize=auto;html=1;strokeColor=#3EA300;strokeWidth=2;" parent="1" edge="1">
                    <mxGeometry relative="1" as="geometry">
                        <mxPoint x="241" y="634" as="sourcePoint"/>
                        <mxPoint x="241" y="540" as="targetPoint"/>
                        <Array as="points"/>
                    </mxGeometry>
                </mxCell>
                <mxCell id="S2VmPhM7Gjt4Ap9U7gyT-61" value="&lt;font style=&quot;font-size: 15px&quot; face=&quot;Times New Roman&quot;&gt;&lt;b style=&quot;line-height: 120%&quot;&gt;&lt;font style=&quot;font-size: 15px&quot;&gt;&lt;font color=&quot;#222222&quot; style=&quot;font-size: 15px&quot;&gt;update_password_post.php&lt;/font&gt;&lt;br&gt;&lt;/font&gt;&lt;/b&gt;&lt;br&gt;&lt;font color=&quot;#ffffff&quot; style=&quot;line-height: 100% ; font-size: 15px&quot;&gt;(management of password changes)&lt;/font&gt;&lt;/font&gt;" style="rounded=1;whiteSpace=wrap;html=1;shadow=0;glass=0;sketch=0;fontColor=#FEFAE0;fillColor=#6A00FF;" parent="1" vertex="1">
                    <mxGeometry x="73" y="630" width="193" height="81" as="geometry"/>
                </mxCell>
                <mxCell id="S2VmPhM7Gjt4Ap9U7gyT-72" style="edgeStyle=orthogonalEdgeStyle;rounded=0;orthogonalLoop=1;jettySize=auto;html=1;exitX=0.1;exitY=-0.032;exitDx=0;exitDy=0;strokeColor=#6F0000;strokeWidth=2;exitPerimeter=0;fillColor=#a20025;entryX=0.75;entryY=1;entryDx=0;entryDy=0;" parent="1" source="S2VmPhM7Gjt4Ap9U7gyT-69" target="S2VmPhM7Gjt4Ap9U7gyT-50" edge="1">
                    <mxGeometry relative="1" as="geometry">
                        <mxPoint x="335" y="544" as="targetPoint"/>
                    </mxGeometry>
                </mxCell>
                <mxCell id="S2VmPhM7Gjt4Ap9U7gyT-73" style="edgeStyle=orthogonalEdgeStyle;rounded=0;orthogonalLoop=1;jettySize=auto;html=1;exitX=0.25;exitY=0;exitDx=0;exitDy=0;strokeColor=#3EA300;strokeWidth=2;entryX=0.914;entryY=1.014;entryDx=0;entryDy=0;entryPerimeter=0;" parent="1" source="S2VmPhM7Gjt4Ap9U7gyT-69" target="S2VmPhM7Gjt4Ap9U7gyT-50" edge="1">
                    <mxGeometry relative="1" as="geometry">
                        <mxPoint x="364" y="541" as="targetPoint"/>
                    </mxGeometry>
                </mxCell>
                <mxCell id="S2VmPhM7Gjt4Ap9U7gyT-69" value="&lt;font style=&quot;font-size: 15px&quot; face=&quot;Times New Roman&quot;&gt;&lt;b style=&quot;line-height: 120%&quot;&gt;&lt;font style=&quot;font-size: 15px&quot;&gt;&lt;font color=&quot;#222222&quot; style=&quot;font-size: 15px&quot;&gt;update_photo_post.php&lt;/font&gt;&lt;br&gt;&lt;/font&gt;&lt;/b&gt;&lt;br&gt;&lt;font color=&quot;#ffffff&quot; style=&quot;line-height: 100% ; font-size: 15px&quot;&gt;(&lt;/font&gt;&lt;/font&gt;&lt;span style=&quot;color: rgb(255 , 255 , 255) ; font-family: &amp;#34;times new roman&amp;#34; ; font-size: 15px&quot;&gt;management of photo changes&lt;/span&gt;&lt;font style=&quot;font-size: 15px&quot; face=&quot;Times New Roman&quot;&gt;&lt;font color=&quot;#ffffff&quot; style=&quot;line-height: 100% ; font-size: 15px&quot;&gt;)&lt;/font&gt;&lt;/font&gt;" style="rounded=1;whiteSpace=wrap;html=1;shadow=0;glass=0;sketch=0;fontColor=#FEFAE0;fillColor=#6A00FF;" parent="1" vertex="1">
                    <mxGeometry x="316" y="630" width="193" height="81" as="geometry"/>
                </mxCell>
            </root>
        </mxGraphModel>
    </diagram>
</mxfile>